<?xml version="1.0" encoding="iso-8859-1"?>
<!-- Generator: Adobe Illustrator 19.0.0, SVG Export Plug-In . SVG Version: 6.00 Build 0)  -->
<svg version="1.1" id="Capa_1" xmlns="http://www.w3.org/2000/svg" xmlns:xlink="http://www.w3.org/1999/xlink" x="0px" y="0px"
	 viewBox="0 0 512 512" style="enable-background:new 0 0 512 512;" xml:space="preserve">
<path style="fill:#FFD88A;" d="M256,0L136,256h120c46.198-124.256,134.822-56.763,181.019-181.019C390.692,28.654,326.692,0,256,0z"
	/>
<g>
	<path style="fill:#E52929;" d="M255.892,256.049c-0.006,0.003-0.011,0.005-0.017,0.008
		C255.88,256.055,255.888,256.051,255.892,256.049z"/>
	<path style="fill:#E52929;" d="M255.875,256.057C255.741,256.119,255.799,256.092,255.875,256.057L255.875,256.057z"/>
	<path style="fill:#E52929;" d="M255.943,256.026c-0.018,0.008-0.037,0.017-0.051,0.023
		C255.91,256.041,255.927,256.033,255.943,256.026z"/>
</g>
<path style="fill:#BF2724;" d="M437.019,74.981C390.822,199.237,302.198,131.744,256,256H136l120,256
	c70.692,0,134.692-28.654,181.019-74.981L512,256C512,185.308,483.346,121.308,437.019,74.981z"/>
<g>
	<path style="fill:#E52929;" d="M255.943,256.026c0.02-0.009,0.032-0.015,0.057-0.026
		C255.986,256.006,255.982,256.008,255.943,256.026z"/>
	<path style="fill:#E52929;" d="M255.951,256.023C255.924,256.035,255.929,256.032,255.951,256.023L255.951,256.023z"/>
</g>
<path style="fill:#FFD88A;" d="M256,256c124.256,46.198,56.763,134.821,181.019,181.019C483.346,390.693,512,326.692,512,256
	C391.471,311.196,376.529,200.804,256,256z"/>
<path style="fill:#FFEBC4;" d="M256,256C131.744,209.802,199.237,121.179,74.981,74.981C28.654,121.308,0,185.308,0,256
	l74.981,181.019C121.307,483.346,185.308,512,256,512c-9.27-20.244-13.87-37.509-15.367-52.796
	C233.215,383.473,301.925,356.286,256,256z"/>
<g>
	<path style="fill:#E52929;" d="M256,0C185.308,0,121.308,28.654,74.981,74.981C199.237,121.179,131.744,209.802,256,256
		C200.804,135.471,311.196,120.529,256,0z"/>
	<path style="fill:#E52929;" d="M0,256c0,70.692,28.654,134.693,74.981,181.019C121.178,312.763,209.802,380.256,256,256
		C135.471,311.196,120.529,200.804,0,256z"/>
</g>
<g>
</g>
<g>
</g>
<g>
</g>
<g>
</g>
<g>
</g>
<g>
</g>
<g>
</g>
<g>
</g>
<g>
</g>
<g>
</g>
<g>
</g>
<g>
</g>
<g>
</g>
<g>
</g>
<g>
</g>
</svg>
